<?xml version="1.0" encoding="UTF-8" standalone="no"?>
<!DOCTYPE svg PUBLIC "-//W3C//DTD SVG 1.1//EN" "http://www.w3.org/Graphics/SVG/1.1/DTD/svg11.dtd">
<svg width="100%" height="100%" viewBox="0 0 800 800" version="1.1" xmlns="http://www.w3.org/2000/svg" xmlns:xlink="http://www.w3.org/1999/xlink" xml:space="preserve" xmlns:serif="http://www.serif.com/" style="fill-rule:evenodd;clip-rule:evenodd;stroke-linecap:round;stroke-linejoin:round;stroke-miterlimit:1.5;">
    <g transform="matrix(1,0,0,1,-10.5882,6.79739)">
        <rect x="171.634" y="105.621" width="477.909" height="575.163" style="fill:rgb(255,0,0);fill-opacity:0;stroke:black;stroke-width:23.97px;"/>
    </g>
    <g transform="matrix(1,0,0,1,-5.60728,82)">
        <path d="M584.171,195.044C584.171,194.914 584.066,194.809 583.936,194.809L227.278,194.809C227.149,194.809 227.043,194.914 227.043,195.044L227.043,195.514C227.043,195.643 227.149,195.749 227.278,195.749L583.936,195.749C584.066,195.749 584.171,195.643 584.171,195.514L584.171,195.044Z" style="fill:rgb(255,0,0);fill-opacity:0;stroke:black;stroke-width:23.97px;"/>
    </g>
    <g transform="matrix(1,0,0,1,-5.60728,-1)">
        <path d="M584.171,195.044C584.171,194.914 584.066,194.809 583.936,194.809L227.278,194.809C227.149,194.809 227.043,194.914 227.043,195.044L227.043,195.514C227.043,195.643 227.149,195.749 227.278,195.749L583.936,195.749C584.066,195.749 584.171,195.643 584.171,195.514L584.171,195.044Z" style="fill:rgb(255,0,0);fill-opacity:0;stroke:black;stroke-width:23.97px;"/>
    </g>
    <g transform="matrix(1,0,0,1,-6.54708,163.346)">
        <path d="M584.171,195.044C584.171,194.914 584.066,194.809 583.936,194.809L227.278,194.809C227.149,194.809 227.043,194.914 227.043,195.044L227.043,195.514C227.043,195.643 227.149,195.749 227.278,195.749L583.936,195.749C584.066,195.749 584.171,195.643 584.171,195.514L584.171,195.044Z" style="fill:rgb(255,0,0);fill-opacity:0;stroke:black;stroke-width:23.97px;"/>
    </g>
    <g transform="matrix(1,0,0,1,-6.54708,245.346)">
        <path d="M584.171,195.044C584.171,194.914 584.066,194.809 583.936,194.809L227.278,194.809C227.149,194.809 227.043,194.914 227.043,195.044L227.043,195.514C227.043,195.643 227.149,195.749 227.278,195.749L583.936,195.749C584.066,195.749 584.171,195.643 584.171,195.514L584.171,195.044Z" style="fill:rgb(255,0,0);fill-opacity:0;stroke:black;stroke-width:23.97px;"/>
    </g>
    <g transform="matrix(1,0,0,1,-5.60728,327.632)">
        <path d="M584.171,195.044C584.171,194.914 584.066,194.809 583.936,194.809L227.278,194.809C227.149,194.809 227.043,194.914 227.043,195.044L227.043,195.514C227.043,195.643 227.149,195.749 227.278,195.749L583.936,195.749C584.066,195.749 584.171,195.643 584.171,195.514L584.171,195.044Z" style="fill:rgb(255,0,0);fill-opacity:0;stroke:black;stroke-width:23.97px;"/>
    </g>
    <g transform="matrix(1,0,0,1,-5.60728,409.632)">
        <path d="M584.171,195.044C584.171,194.914 584.066,194.809 583.936,194.809L227.278,194.809C227.149,194.809 227.043,194.914 227.043,195.044L227.043,195.514C227.043,195.643 227.149,195.749 227.278,195.749L583.936,195.749C584.066,195.749 584.171,195.643 584.171,195.514L584.171,195.044Z" style="fill:rgb(255,0,0);fill-opacity:0;stroke:black;stroke-width:23.97px;"/>
    </g>
</svg>
